<svg xmlns="http://www.w3.org/2000/svg" viewBox="0 0 256 256" fill="none" role="img" aria-label="Teal friend">
  <defs>
    <radialGradient id="teal-body" cx="42%" cy="28%" r="72%">
      <stop offset="0%" stop-color="{{BODY_LIGHT}}"/>
      <stop offset="52%" stop-color="{{BODY}}"/>
      <stop offset="100%" stop-color="{{BODY_SHADOW}}"/>
    </radialGradient>
  </defs>
  <circle id="antenna" cx="128" cy="40" r="12" fill="url(#teal-body)"/>
  <rect x="123.5" y="48" width="9" height="26" rx="4.5" fill="{{BODY}}"/>
  <path d="M128 70c36 0 70 34 76 84 6 46-26 82-76 82s-82-36-76-82c6-50 40-84 76-84z" fill="url(#teal-body)"/>
  <circle cx="86" cy="176" r="7.5" fill="{{BODY_DEEP}}" opacity="0.42"/>
  <circle cx="104" cy="190" r="5.8" fill="{{BODY_DEEP}}" opacity="0.36"/>
  <circle cx="78" cy="194" r="4.8" fill="{{BODY_DEEP}}" opacity="0.32"/>
  <path d="M92 108c10-6 22-6 32 2" stroke="{{BODY_SHADOW}}" stroke-width="2.5" stroke-linecap="round" opacity="0.4"/>
  <path d="M134 110c10-6 22-6 32 2" stroke="{{BODY_SHADOW}}" stroke-width="2.5" stroke-linecap="round" opacity="0.4"/>
  <g class="mascot-idle">
    <g class="mascot-blink">
      <circle cx="102" cy="132" r="15.5" fill="#1A1210"/>
      <circle cx="154" cy="132" r="15.5" fill="#1A1210"/>
      <circle cx="96.5" cy="126" r="5.2" fill="#fff"/>
      <circle cx="148.5" cy="126" r="5.2" fill="#fff"/>
      <path d="M110 138c2 4 6 4 8 0" stroke="#fff" stroke-width="1.8" stroke-linecap="round"/>
      <path d="M162 138c2 4 6 4 8 0" stroke="#fff" stroke-width="1.8" stroke-linecap="round"/>
    </g>
  </g>
  <ellipse cx="82" cy="154" rx="16" ry="9" fill="#F4A0B4" opacity="0.5"/>
  <ellipse cx="174" cy="154" rx="16" ry="9" fill="#F4A0B4" opacity="0.5"/>
  <circle cx="168" cy="150" r="1.3" fill="#fff" opacity="0.8"/>
  <circle cx="174" cy="153" r="1.1" fill="#fff" opacity="0.75"/>
  <circle cx="180" cy="150" r="1.1" fill="#fff" opacity="0.7"/>
  <ellipse cx="128" cy="162" rx="11" ry="9" fill="#8B3040"/>
  <path d="M120 164c5 8 11 8 16 0" fill="#E07A8A"/>
</svg>
